<svg width="32" height="32" viewBox="0 0 32 32" fill="none" xmlns="http://www.w3.org/2000/svg">
<g clip-path="url(#clip0_1001_15081)">
<path d="M2.44419 6.80476C2.30323 5.91481 2.91941 5.19336 3.82046 5.19336H25.1658C25.7665 5.19336 26.3296 5.67433 26.4236 6.26763L29.7108 27.0223C29.8518 27.9123 29.2356 28.6337 28.3345 28.6337H7.53305C6.632 28.6337 5.78729 27.9123 5.64633 27.0223L2.44419 6.80476Z" fill="#C6592A"/>
<g filter="url(#filter0_f_1001_15081)">
<line y1="-0.0679788" x2="1.96634" y2="-0.0679788" transform="matrix(0.521983 -0.757322 0.867182 0.634028 6.16724 28.3291)" stroke="#FFC5AD" stroke-width="0.135958"/>
</g>
<g filter="url(#filter1_f_1001_15081)">
<line y1="-0.0679788" x2="1.96634" y2="-0.0679788" transform="matrix(0.992825 0.339568 -0.196902 0.927482 2.25879 5.49658)" stroke="#FFC5AD" stroke-width="0.135958"/>
</g>
</g>
<rect width="23.3847" height="22.7049" rx="1.08766" transform="matrix(1 0 0.156434 0.987688 2.86987 5.20142)" fill="#FF9C71"/>
<circle cx="1.29359" cy="1.29359" r="1.29359" transform="matrix(1 0 0.156434 0.987688 5.36279 6.32568)" fill="#60240A"/>
<circle cx="1.29359" cy="1.29359" r="1.29359" transform="matrix(1 0 0.156434 0.987688 22.4976 6.32568)" fill="#60240A"/>
<g clip-path="url(#clip1_1001_15081)">
<g clip-path="url(#clip2_1001_15081)">
<rect width="23.2487" height="18.1503" transform="matrix(1 0 0.156434 0.987688 3.73096 9.56543)" fill="#F7F7F7"/>
<rect width="1.90341" height="1.90341" rx="0.54383" transform="matrix(1 0 0.156434 0.987688 12.0488 11.8665)" fill="#FFCDB8"/>
<rect width="1.90341" height="1.90341" rx="0.54383" transform="matrix(1 0 0.156434 0.987688 14.7678 11.8665)" fill="#FFCDB8"/>
<rect width="1.90341" height="1.90341" transform="matrix(1 0 0.156434 0.987688 7.03296 14.5337)" fill="#E4E0E0"/>
<rect width="1.90341" height="1.90341" transform="matrix(1 0 0.156434 0.987688 7.45532 17.2014)" fill="#E4E0E0"/>
<rect width="1.90341" height="1.90341" transform="matrix(1 0 0.156434 0.987688 7.87793 19.8687)" fill="#E4E0E0"/>
<rect width="1.90341" height="1.90341" rx="0.54383" transform="matrix(1 0 0.156434 0.987688 17.4871 11.8665)" fill="#FFCDB8"/>
<rect width="1.90341" height="1.90341" transform="matrix(1 0 0.156434 0.987688 9.7522 14.5337)" fill="#E4E0E0"/>
<rect width="1.90341" height="1.90341" transform="matrix(1 0 0.156434 0.987688 10.1746 17.2014)" fill="#E4E0E0"/>
<rect width="1.90341" height="1.90341" transform="matrix(1 0 0.156434 0.987688 10.5972 19.8687)" fill="#E4E0E0"/>
<rect width="1.90341" height="1.90341" transform="matrix(1 0 0.156434 0.987688 20.2063 11.8665)" fill="#E4E0E0"/>
<rect width="1.90341" height="1.90341" transform="matrix(1 0 0.156434 0.987688 12.4712 14.5337)" fill="#E4E0E0"/>
<rect width="1.90341" height="1.90341" transform="matrix(1 0 0.156434 0.987688 12.8936 17.2014)" fill="#E4E0E0"/>
<rect width="1.90341" height="1.90341" transform="matrix(1 0 0.156434 0.987688 13.3164 19.8687)" fill="#E4E0E0"/>
<rect width="1.90341" height="1.90341" transform="matrix(1 0 0.156434 0.987688 17.9097 14.5337)" fill="#E4E0E0"/>
<rect width="1.90341" height="1.90341" transform="matrix(1 0 0.156434 0.987688 18.332 17.2014)" fill="#E4E0E0"/>
<rect width="1.90341" height="1.90341" transform="matrix(1 0 0.156434 0.987688 18.7546 19.8687)" fill="#E4E0E0"/>
<rect width="1.90341" height="1.90341" transform="matrix(1 0 0.156434 0.987688 22.9253 11.8665)" fill="#E4E0E0"/>
<rect width="1.90341" height="1.90341" transform="matrix(1 0 0.156434 0.987688 15.1904 14.5337)" fill="#E4E0E0"/>
<rect width="1.90341" height="1.90341" transform="matrix(1 0 0.156434 0.987688 15.6128 17.2014)" fill="#E4E0E0"/>
<rect width="1.90341" height="1.90341" transform="matrix(1 0 0.156434 0.987688 16.0354 19.8687)" fill="#E4E0E0"/>
<rect width="1.90341" height="1.90341" transform="matrix(1 0 0.156434 0.987688 20.6287 14.5337)" fill="#E4E0E0"/>
<rect width="1.90341" height="1.90341" transform="matrix(1 0 0.156434 0.987688 21.0513 17.2014)" fill="#E4E0E0"/>
<rect width="1.90341" height="1.90341" transform="matrix(1 0 0.156434 0.987688 23.3479 14.5337)" fill="#E4E0E0"/>
<rect width="1.90341" height="1.90341" transform="matrix(1 0 0.156434 0.987688 23.7703 17.2014)" fill="#E4E0E0"/>
<path d="M25.3869 27.5377L29.1995 23.395L29.779 27.0537L29.3264 27.5377H25.3869Z" fill="#DBDBDB"/>
<path d="M28.8936 23.6697L25.2275 27.7689L24.7485 24.7898C24.6539 24.2012 25.0563 23.721 25.651 23.7131L28.8936 23.6697Z" fill="#BEBEBE"/>
<path d="M29.2031 23.4553L25.4308 27.5511L24.9521 24.5296C24.8582 23.9363 25.269 23.4553 25.8697 23.4553H29.2031Z" fill="#E8E8E8"/>
<path d="M8.48633 23.3247H18.4864" stroke="#DBD7D7" stroke-width="0.135958" stroke-linecap="round"/>
<path d="M8.57568 23.8896H18.5757" stroke="#DBD7D7" stroke-width="0.135958" stroke-linecap="round"/>
</g>
<rect width="23.2698" height="0.72337" transform="matrix(1 0 0.156434 0.987688 3.6748 9.15723)" fill="#C9C4C3"/>
<path fill-rule="evenodd" clip-rule="evenodd" d="M3.04565 5.18579H26.2944L26.975 9.48287H3.72624L3.04565 5.18579ZM7.27983 7.50822C7.35324 7.97173 7.03232 8.34749 6.56302 8.34749C6.09373 8.34749 5.65377 7.97173 5.58036 7.50822C5.50694 7.0447 5.82787 6.66894 6.29717 6.66894C6.76646 6.66894 7.20641 7.0447 7.27983 7.50822ZM23.7617 8.34749C24.231 8.34749 24.5519 7.97173 24.4785 7.50822C24.4051 7.0447 23.9651 6.66894 23.4958 6.66894C23.0265 6.66894 22.7056 7.0447 22.779 7.50822C22.8524 7.97173 23.2924 8.34749 23.7617 8.34749Z" fill="#FF6D2E"/>
<circle cx="0.854149" cy="0.854149" r="0.82016" transform="matrix(1 0 0.156434 0.987688 5.44409 6.6792)" stroke="#FFAB87" stroke-width="0.0679788"/>
<circle cx="0.854149" cy="0.854149" r="0.82016" transform="matrix(1 0 0.156434 0.987688 22.6426 6.6792)" stroke="#FFAB87" stroke-width="0.0679788"/>
</g>
<rect width="1.44999" height="4.13934" rx="0.724996" transform="matrix(1 0 0.156434 0.987688 5.16528 4)" fill="url(#paint0_linear_1001_15081)"/>
<rect width="1.44999" height="4.13934" rx="0.724996" transform="matrix(1 0 0.156434 0.987688 22.3743 4.06714)" fill="url(#paint1_linear_1001_15081)"/>
<defs>
<filter id="filter0_f_1001_15081" x="5.50549" y="26.2098" width="2.23195" height="2.6631" filterUnits="userSpaceOnUse" color-interpolation-filters="sRGB">
<feFlood flood-opacity="0" result="BackgroundImageFix"/>
<feBlend mode="normal" in="SourceGraphic" in2="BackgroundImageFix" result="shape"/>
<feGaussianBlur stdDeviation="0.271915" result="effect1_foregroundBlur_1001_15081"/>
</filter>
<filter id="filter1_f_1001_15081" x="1.71496" y="4.82678" width="3.06666" height="1.88136" filterUnits="userSpaceOnUse" color-interpolation-filters="sRGB">
<feFlood flood-opacity="0" result="BackgroundImageFix"/>
<feBlend mode="normal" in="SourceGraphic" in2="BackgroundImageFix" result="shape"/>
<feGaussianBlur stdDeviation="0.271915" result="effect1_foregroundBlur_1001_15081"/>
</filter>
<linearGradient id="paint0_linear_1001_15081" x1="0" y1="2.06967" x2="1.44999" y2="2.06967" gradientUnits="userSpaceOnUse">
<stop stop-color="#4F1D08"/>
<stop offset="1" stop-color="#B54212"/>
</linearGradient>
<linearGradient id="paint1_linear_1001_15081" x1="0" y1="2.06967" x2="1.44999" y2="2.06967" gradientUnits="userSpaceOnUse">
<stop stop-color="#4F1D08"/>
<stop offset="1" stop-color="#B54212"/>
</linearGradient>
<clipPath id="clip0_1001_15081">
<path d="M2.44419 6.80476C2.30323 5.91481 2.91941 5.19336 3.82046 5.19336H25.1658C25.7665 5.19336 26.3296 5.67433 26.4236 6.26763L29.7108 27.0223C29.8518 27.9123 29.2356 28.6337 28.3345 28.6337H7.53305C6.632 28.6337 5.78729 27.9123 5.64633 27.0223L2.44419 6.80476Z" fill="white"/>
</clipPath>
<clipPath id="clip1_1001_15081">
<rect width="23.2487" height="22.569" rx="1.08766" transform="matrix(1 0 0.156434 0.987688 3.03833 5.19189)" fill="white"/>
</clipPath>
<clipPath id="clip2_1001_15081">
<rect width="23.2487" height="18.1503" fill="white" transform="matrix(1 0 0.156434 0.987688 3.73096 9.56543)"/>
</clipPath>
</defs>
</svg>
