<svg xmlns="http://www.w3.org/2000/svg" width="19" height="21" viewBox="0 0 19 21" fill="none">
<mask id="mask0_5514_59333" style="mask-type:luminance" maskUnits="userSpaceOnUse" x="-1" y="0" width="21" height="21">
<path d="M-0.5 0.5H19.5V20.5H-0.5V0.5Z" fill="white"/>
</mask>
<g mask="url(#mask0_5514_59333)">
<path d="M13.2463 0.5C12.1797 0.573333 10.9338 1.25583 10.208 2.145C9.54465 2.95083 8.99965 4.14833 9.21299 5.3125C10.3772 5.34833 11.5813 4.65 12.2788 3.74583C12.9313 2.905 13.4255 1.715 13.2463 0.5Z" fill="white"/>
<path d="M17.4613 7.20983C16.4379 5.9265 14.9988 5.18066 13.6404 5.18066C11.8463 5.18066 11.0879 6.039 9.84126 6.039C8.55626 6.039 7.58043 5.18316 6.02876 5.18316C4.50543 5.18316 2.88293 6.11483 1.85376 7.70733C0.407928 9.949 0.655427 14.1657 2.99876 17.7573C3.83793 19.0423 4.95709 20.4873 6.42293 20.499C7.72626 20.5123 8.09376 19.6632 9.86043 19.6548C11.6271 19.6448 11.9613 20.5107 13.2629 20.4965C14.7296 20.4857 15.9104 18.8848 16.7488 17.5998C17.3504 16.6782 17.5738 16.2148 18.0404 15.1748C14.6488 13.8832 14.1054 9.06066 17.4613 7.20983Z" fill="white"/>
</g>
</svg>