<svg width="64" height="64" viewBox="0 0 64 64" fill="none" xmlns="http://www.w3.org/2000/svg">
<rect x="0.5" y="0.5" width="63" height="63" rx="15.5" fill="#F97316"/>
<rect x="0.5" y="0.5" width="63" height="63" rx="15.5" stroke="#E0633A"/>
<path d="M23.4751 18.7638C23.5163 18.7636 23.5575 18.7633 23.5986 18.763C23.7115 18.7623 23.8244 18.763 23.9374 18.764C24.0603 18.7648 24.1832 18.7642 24.3061 18.7638C24.5215 18.7634 24.7368 18.7637 24.9522 18.7647C25.2724 18.7661 25.5926 18.7662 25.9128 18.766C26.4515 18.7657 26.9902 18.7664 27.5289 18.7678C28.0622 18.7692 28.5956 18.7701 29.129 18.7704C29.1621 18.7704 29.1953 18.7704 29.2295 18.7704C29.3979 18.7705 29.5663 18.7706 29.7347 18.7706C30.9276 18.7711 32.1205 18.7727 33.3134 18.7749C34.4723 18.777 35.6312 18.7787 36.7901 18.7797C36.8258 18.7797 36.8615 18.7797 36.8983 18.7798C37.2571 18.7801 37.6158 18.7804 37.9745 18.7806C38.7053 18.7812 39.436 18.7819 40.1668 18.7826C40.2004 18.7826 40.234 18.7827 40.2686 18.7827C41.2985 18.7837 42.3284 18.7849 43.3583 18.7865C43.4021 18.7865 43.4021 18.7865 43.4469 18.7866C44.6313 18.7884 45.8156 18.7905 47 18.7925C47 21.0793 47 23.3662 47 25.7224C36.44 25.7224 25.88 25.7224 15 25.7224C15.1024 25.5995 15.1758 25.5169 15.2966 25.4221C15.4046 25.3358 15.5094 25.2479 15.6115 25.1546C15.7367 25.0405 15.8665 24.9336 15.9982 24.827C16.0751 24.7634 16.1492 24.6977 16.2229 24.6305C16.3196 24.5425 16.4179 24.458 16.5196 24.3757C16.7071 24.2239 16.8884 24.0652 17.0703 23.9068C17.157 23.8316 17.2441 23.757 17.3312 23.6824C17.3479 23.6681 17.3646 23.6538 17.3818 23.639C17.4154 23.6103 17.4491 23.5815 17.4827 23.5527C17.5675 23.4801 17.6523 23.4074 17.737 23.3348C17.771 23.3057 17.805 23.2765 17.8389 23.2474C17.8558 23.233 17.8726 23.2186 17.8899 23.2037C18.0767 23.0436 18.2636 22.8834 18.4504 22.7233C18.4672 22.7089 18.484 22.6945 18.5014 22.6796C18.5353 22.6505 18.5693 22.6214 18.6032 22.5923C18.6885 22.5192 18.7738 22.4461 18.8591 22.3729C19.0388 22.2186 19.2189 22.065 19.3999 21.9122C19.5668 21.771 19.7327 21.6287 19.8985 21.4863C19.9836 21.4133 20.0687 21.3404 20.1538 21.2674C20.1877 21.2383 20.2217 21.2092 20.2557 21.1801C20.5954 20.8889 20.9351 20.5977 21.2748 20.3066C21.3 20.2849 21.3 20.2849 21.3258 20.2629C21.3597 20.2338 21.3936 20.2047 21.4276 20.1756C21.5129 20.1025 21.5982 20.0293 21.6835 19.9561C21.8631 19.802 22.0431 19.6483 22.224 19.4957C22.3066 19.4259 22.3889 19.3559 22.4708 19.2853C22.4883 19.2702 22.5059 19.255 22.524 19.2395C22.5571 19.211 22.5901 19.1824 22.6231 19.1538C22.6542 19.127 22.6856 19.1005 22.7172 19.0743C22.7574 19.0399 22.7961 19.0039 22.8338 18.9669C23.0397 18.7775 23.2019 18.7594 23.4751 18.7638Z" fill="white"/>
<path d="M31.4015 38.8298C31.434 38.8296 31.4666 38.8295 31.5001 38.8293C31.6088 38.8289 31.7175 38.8301 31.8263 38.8312C31.9043 38.8312 31.9824 38.8312 32.0604 38.8311C32.2284 38.831 32.3963 38.8316 32.5642 38.8328C32.8069 38.8344 33.0497 38.835 33.2924 38.8352C33.6863 38.8357 34.0802 38.837 34.4741 38.8389C34.8567 38.8408 35.2392 38.8423 35.6218 38.8431C35.6456 38.8432 35.6694 38.8432 35.694 38.8433C35.8804 38.8437 36.0668 38.8441 36.2533 38.8445C37.1664 38.8464 38.0796 38.8505 38.9927 38.8543C38.9927 41.1508 38.9927 43.4473 38.9927 45.8134C33.7079 45.8134 28.4231 45.8134 22.9782 45.8134C23.1935 45.5981 23.4194 45.4006 23.6561 45.2092C23.7329 45.1456 23.8071 45.0799 23.8808 45.0126C23.9775 44.9246 24.0758 44.8401 24.1774 44.7579C24.3649 44.606 24.5463 44.4474 24.7282 44.289C24.8148 44.2138 24.9019 44.1391 24.9891 44.0645C25.0058 44.0502 25.0225 44.0359 25.0397 44.0212C25.0733 43.9924 25.107 43.9636 25.1406 43.9348C25.2254 43.8623 25.3102 43.7896 25.3949 43.7169C25.4289 43.6878 25.4628 43.6587 25.4968 43.6296C25.5136 43.6152 25.5304 43.6007 25.5478 43.5859C25.8705 43.3093 26.1932 43.0327 26.5159 42.7561C26.5327 42.7416 26.5496 42.7272 26.5669 42.7124C26.6008 42.6833 26.6347 42.6543 26.6686 42.6252C26.7547 42.5514 26.8407 42.4776 26.9266 42.4036C27.0819 42.2699 27.2375 42.1371 27.3967 42.0081C27.5241 41.9047 27.6458 41.7965 27.7671 41.686C27.8692 41.5952 27.9756 41.5099 28.0819 41.4239C28.1588 41.3603 28.2329 41.2946 28.3066 41.2274C28.4318 41.1133 28.5617 41.0063 28.6934 40.8998C28.7702 40.8362 28.8444 40.7705 28.9181 40.7033C29.0433 40.5892 29.1732 40.4822 29.3048 40.3757C29.3817 40.3121 29.4558 40.2464 29.5296 40.1792C29.6262 40.0911 29.7246 40.0066 29.8262 39.9244C29.9942 39.7884 30.1571 39.6469 30.3201 39.505C30.445 39.3963 30.5707 39.2886 30.6966 39.1811C30.712 39.1679 30.7274 39.1547 30.7433 39.1412C30.7581 39.1288 30.7729 39.1165 30.7881 39.1038C30.8409 39.0587 30.8409 39.0587 30.8887 39.0063C31.0508 38.8424 31.1766 38.8254 31.4015 38.8298Z" fill="white"/>
<path d="M31.2072 28.8308C31.235 28.8306 31.2628 28.8305 31.2914 28.8304C31.3372 28.8307 31.3372 28.8307 31.384 28.8309C31.4164 28.8309 31.4488 28.8308 31.4822 28.8308C31.5914 28.8307 31.7006 28.831 31.8097 28.8313C31.8878 28.8313 31.9658 28.8313 32.0439 28.8313C32.2122 28.8313 32.3805 28.8314 32.5488 28.8318C32.7921 28.8322 33.0354 28.8324 33.2788 28.8325C33.6736 28.8326 34.0684 28.833 34.4631 28.8335C34.8467 28.8341 35.2302 28.8345 35.6138 28.8347C35.6496 28.8348 35.6496 28.8348 35.6861 28.8348C35.8728 28.8349 36.0595 28.835 36.2462 28.8351C37.1617 28.8357 38.0772 28.8368 38.9927 28.8379C38.9927 31.1248 38.9927 33.4117 38.9927 35.7679C33.7079 35.7679 28.4231 35.7679 22.9782 35.7679C23.142 35.6041 23.142 35.6041 23.2192 35.5375C23.2363 35.5227 23.2534 35.5079 23.2711 35.4927C23.2891 35.4772 23.3072 35.4617 23.3258 35.4458C23.3449 35.4293 23.364 35.4128 23.3836 35.3958C23.4425 35.3451 23.5015 35.2944 23.5605 35.2438C23.5782 35.2286 23.5958 35.2134 23.614 35.1978C23.7151 35.1109 23.8164 35.0242 23.9177 34.9376C24.0025 34.865 24.0872 34.7923 24.172 34.7196C24.2059 34.6905 24.2399 34.6614 24.2739 34.6323C24.2907 34.6179 24.3075 34.6035 24.3248 34.5886C24.3758 34.5449 24.4268 34.5013 24.4777 34.4576C24.4945 34.4432 24.5114 34.4287 24.5287 34.4139C24.5626 34.3848 24.5965 34.3558 24.6304 34.3267C24.7165 34.253 24.8025 34.1791 24.8884 34.1051C25.0437 33.9714 25.1993 33.8386 25.3585 33.7096C25.4859 33.6063 25.6076 33.498 25.7288 33.3875C25.831 33.2967 25.9374 33.2114 26.0437 33.1255C26.1206 33.0618 26.1947 32.9961 26.2684 32.9289C26.3936 32.8148 26.5234 32.7079 26.655 32.6015C26.7326 32.5373 26.8073 32.4709 26.8817 32.403C26.9728 32.32 27.0652 32.2408 27.162 32.1646C27.3459 32.0195 27.5212 31.8646 27.6977 31.7107C27.7845 31.6353 27.8717 31.5605 27.9591 31.4858C27.9757 31.4715 27.9924 31.4573 28.0096 31.4426C28.0432 31.4138 28.0768 31.385 28.1104 31.3562C28.1616 31.3124 28.2128 31.2685 28.2639 31.2246C28.4436 31.0703 28.6238 30.9167 28.8048 30.7638C28.9717 30.6227 29.1376 30.4804 29.3034 30.3379C29.3885 30.2649 29.4736 30.192 29.5587 30.1191C29.5927 30.09 29.6266 30.0609 29.6606 30.0317C29.8644 29.857 30.0682 29.6823 30.2721 29.5076C30.2889 29.4932 30.3057 29.4788 30.3231 29.4639C30.3568 29.435 30.3905 29.4061 30.4242 29.3772C30.5133 29.301 30.6022 29.2246 30.691 29.148C30.7095 29.132 30.728 29.1161 30.7471 29.0996C30.7826 29.0691 30.8181 29.0384 30.8536 29.0077C31.0594 28.8306 31.0594 28.8306 31.2072 28.8308Z" fill="white"/>
</svg>
