<svg xmlns="http://www.w3.org/2000/svg" width="135" height="40" viewBox="0 0 135 40" fill="none">
<rect x="0.5" y="0.5" width="134" height="39" rx="6.5" fill="#0C0D10"/>
<rect x="0.5" y="0.5" width="134" height="39" rx="6.5" stroke="#A6A6A6"/>
<path d="M106.934 30H108.8V17.4984H106.934V30ZM123.741 22.002L121.602 27.4219H121.538L119.318 22.002H117.308L120.638 29.577L118.739 33.791H120.685L125.816 22.002H123.741ZM113.158 28.5801C112.548 28.5801 111.695 28.2742 111.695 27.5184C111.695 26.5535 112.757 26.1836 113.673 26.1836C114.493 26.1836 114.88 26.3602 115.378 26.6016C115.233 27.7598 114.236 28.5801 113.158 28.5801ZM113.384 21.7285C112.033 21.7285 110.634 22.3238 110.055 23.6426L111.711 24.334C112.065 23.6426 112.724 23.4176 113.416 23.4176C114.381 23.4176 115.362 23.9961 115.378 25.0258V25.1543C115.04 24.9613 114.316 24.6719 113.432 24.6719C111.646 24.6719 109.829 25.6527 109.829 27.4863C109.829 29.159 111.293 30.2367 112.933 30.2367C114.187 30.2367 114.88 29.6738 115.313 29.0141H115.378V29.9797H117.18V25.1863C117.18 22.9668 115.522 21.7285 113.384 21.7285ZM101.852 23.5238H99.1977V19.2387H101.852C103.247 19.2387 104.039 20.3934 104.039 21.3812C104.039 22.35 103.247 23.5238 101.852 23.5238ZM101.804 17.4984H97.3325V30H99.1977V25.2637H101.804C103.872 25.2637 105.905 23.7668 105.905 21.3812C105.905 18.9961 103.872 17.4984 101.804 17.4984ZM77.4223 28.5824C76.1332 28.5824 75.0543 27.5027 75.0543 26.0211C75.0543 24.5223 76.1332 23.4273 77.4223 23.4273C78.695 23.4273 79.6938 24.5223 79.6938 26.0211C79.6938 27.5027 78.695 28.5824 77.4223 28.5824ZM79.5649 22.702H79.5004C79.0817 22.2027 78.2758 21.7516 77.2614 21.7516C75.1344 21.7516 73.1852 23.6207 73.1852 26.0211C73.1852 28.4051 75.1344 30.2578 77.2614 30.2578C78.2758 30.2578 79.0817 29.8066 79.5004 29.2914H79.5649V29.9031C79.5649 31.5309 78.695 32.4004 77.2934 32.4004C76.15 32.4004 75.4411 31.5789 75.1508 30.8863L73.5239 31.5629C73.9907 32.6902 75.2309 34.0762 77.2934 34.0762C79.4848 34.0762 81.3375 32.7871 81.3375 29.6453V22.0094H79.5649V22.702ZM82.6266 30H84.4946V17.4984H82.6266V30ZM87.2497 25.8758C87.2016 24.2324 88.5231 23.3949 89.4731 23.3949C90.2145 23.3949 90.8422 23.7656 91.0524 24.2969L87.2497 25.8758ZM93.0493 24.4578C92.695 23.5078 91.6157 21.7516 89.4086 21.7516C87.2172 21.7516 85.3969 23.4754 85.3969 26.0047C85.3969 28.3891 87.2016 30.2578 89.6176 30.2578C91.5668 30.2578 92.695 29.066 93.1625 28.373L91.7125 27.4062C91.229 28.1152 90.5688 28.5824 89.6176 28.5824C88.6676 28.5824 87.9907 28.1473 87.5563 27.2934L93.2426 24.9414L93.0493 24.4578ZM47.7415 23.0566V24.8609H52.059C51.9301 25.8758 51.5918 26.6168 51.0762 27.1324C50.4477 27.7605 49.4649 28.4535 47.7415 28.4535C45.0832 28.4535 43.0051 26.3109 43.0051 23.6527C43.0051 20.9945 45.0832 18.8516 47.7415 18.8516C49.1754 18.8516 50.2223 19.4156 50.9957 20.1406L52.2688 18.8676C51.1891 17.8367 49.7555 17.0473 47.7415 17.0473C44.1 17.0473 41.0391 20.0117 41.0391 23.6527C41.0391 27.2934 44.1 30.2578 47.7415 30.2578C49.7067 30.2578 51.1891 29.6133 52.3489 28.4051C53.5411 27.2129 53.9118 25.5375 53.9118 24.184C53.9118 23.7656 53.8793 23.3789 53.8149 23.0566H47.7415ZM58.8204 28.5824C57.5313 28.5824 56.4196 27.5191 56.4196 26.0047C56.4196 24.4742 57.5313 23.4273 58.8204 23.4273C60.109 23.4273 61.2207 24.4742 61.2207 26.0047C61.2207 27.5191 60.109 28.5824 58.8204 28.5824ZM58.8204 21.7516C56.4676 21.7516 54.5508 23.5398 54.5508 26.0047C54.5508 28.4535 56.4676 30.2578 58.8204 30.2578C61.1723 30.2578 63.0895 28.4535 63.0895 26.0047C63.0895 23.5398 61.1723 21.7516 58.8204 21.7516ZM68.1332 28.5824C66.845 28.5824 65.7329 27.5191 65.7329 26.0047C65.7329 24.4742 66.845 23.4273 68.1332 23.4273C69.4223 23.4273 70.5336 24.4742 70.5336 26.0047C70.5336 27.5191 69.4223 28.5824 68.1332 28.5824ZM68.1332 21.7516C65.7813 21.7516 63.8645 23.5398 63.8645 26.0047C63.8645 28.4535 65.7813 30.2578 68.1332 30.2578C70.486 30.2578 72.4028 28.4535 72.4028 26.0047C72.4028 23.5398 70.486 21.7516 68.1332 21.7516Z" fill="white"/>
<path d="M44.4766 13.2344C43.58 13.2344 42.8089 12.9189 42.1871 12.2973C41.565 11.6752 41.25 10.8963 41.25 9.99062C41.25 9.08493 41.5652 8.30743 42.1871 7.68398C42.8089 7.06223 43.58 6.74687 44.4766 6.74687C44.9333 6.74687 45.3596 6.82576 45.767 6.99003C46.1745 7.15433 46.5079 7.38239 46.7705 7.68085L46.8324 7.75136L46.133 8.45058L46.0631 8.36464C45.889 8.1507 45.6675 7.98449 45.3869 7.86367C45.1073 7.74315 44.8011 7.68749 44.4766 7.68749C43.8451 7.68749 43.3211 7.90194 42.8836 8.33788C42.8835 8.33798 42.8833 8.33798 42.8832 8.33809C42.4556 8.78283 42.2406 9.32431 42.2406 9.99062C42.2406 10.6575 42.4559 11.199 42.884 11.6439C43.3215 12.0797 43.8454 12.2953 44.4766 12.2953C45.0546 12.2953 45.5327 12.1339 45.9086 11.8145H45.9088C46.2587 11.5171 46.4687 11.1153 46.543 10.6031H44.3766V9.68125H47.4793L47.4926 9.76562C47.518 9.92768 47.5359 10.0841 47.5359 10.2344C47.5359 11.0945 47.2737 11.7967 46.7592 12.3133C46.1784 12.929 45.4145 13.2344 44.4766 13.2344L44.4766 13.2344ZM71.4184 13.2344C70.5205 13.2344 69.7583 12.9188 69.1445 12.2973C69.1445 12.2972 69.1444 12.2972 69.1443 12.2971C69.1443 12.297 69.1442 12.297 69.1441 12.2969C68.5295 11.6821 68.2246 10.903 68.2246 9.99061C68.2246 9.07822 68.5295 8.29915 69.1441 7.68436C69.1442 7.68429 69.1442 7.68426 69.1443 7.68416L69.1445 7.68396C69.7583 7.06236 70.5205 6.74685 71.4184 6.74685C72.3145 6.74685 73.0769 7.06244 73.6906 7.69334C74.3054 8.30803 74.6105 9.08562 74.6105 9.9906C74.6105 10.903 74.3056 11.6821 73.691 12.2969L73.6908 12.2971C73.0767 12.919 72.3072 13.2344 71.4184 13.2344L71.4184 13.2344ZM48.4238 13.1V6.88124H48.5238H52.1379V7.82187H49.3973V9.52968H51.8691V10.4516H49.3973V12.1609H52.1379V13.1H48.4238ZM54.4109 13.1V7.82187H52.7297V6.88124H57.0656V7.82187H56.9656H55.3844V13.1H54.4109ZM59.8367 13.1V6.88124H60.8102V6.98124V13.1H59.8367ZM63.2605 13.1V7.82187H61.5793V6.88124H65.9152V7.82187H65.8152H64.234V13.1H63.2605ZM75.4746 13.1V6.88124H76.5723L79.3658 11.3535L79.3418 10.5045V6.88124H80.3152V13.1H79.352L76.424 8.40175L76.448 9.25019V9.25156V13.1H75.4746ZM71.4184 12.2953C72.0498 12.2953 72.5653 12.0799 72.9855 11.6447L72.9861 11.6439L72.9867 11.6433C73.413 11.217 73.6215 10.6682 73.6215 9.99059C73.6215 9.31461 73.4129 8.76397 72.9867 8.33785L72.9861 8.33725L72.9855 8.33665C72.5654 7.90152 72.05 7.68743 71.4184 7.68743C70.7857 7.68743 70.2703 7.90115 69.8422 8.33626L69.8418 8.33666C69.4235 8.77312 69.2152 9.3148 69.2152 9.99057C69.2152 10.668 69.4234 11.2079 69.8418 11.6445L69.8422 11.6449C70.2704 12.0801 70.7858 12.2953 71.4184 12.2953V12.2953Z" fill="white"/>
<path d="M20.7149 19.4232L10.0684 30.7232C10.0688 30.7256 10.0696 30.7275 10.07 30.7299C10.3965 31.9568 11.5172 32.8604 12.8473 32.8604C13.379 32.8604 13.8782 32.7166 14.3063 32.4643L14.3403 32.4443L26.3243 25.5291L20.7149 19.4232Z" fill="#EA4335"/>
<path d="M31.4856 17.4991L31.4754 17.4921L26.3016 14.4928L20.4727 19.6796L26.3219 25.528L31.4684 22.5585C32.3707 22.0714 32.9832 21.1202 32.9832 20.0233C32.9832 18.9343 32.3789 17.9878 31.4856 17.4991Z" fill="#FBBC04"/>
<path d="M10.0683 9.27635C10.0043 9.51235 9.9707 9.75955 9.9707 10.0162V29.9838C9.9707 30.2401 10.0039 30.4881 10.0687 30.7233L21.0816 19.7123L10.0683 9.27635Z" fill="#4285F4"/>
<path d="M20.7938 19.9999L26.3044 14.4909L14.334 7.55068C13.8989 7.29008 13.3911 7.13968 12.8477 7.13968C11.5176 7.13968 10.3954 8.04478 10.0688 9.27328C10.0684 9.27448 10.0684 9.27528 10.0684 9.27638L20.7938 19.9999Z" fill="#34A853"/>
</svg>