<svg width="32" height="32" viewBox="0 0 32 32" fill="none" xmlns="http://www.w3.org/2000/svg">
<circle opacity="0.4" cx="16.5335" cy="16.7634" r="13.4899" fill="#4F1D08"/>
<circle cx="15.7583" cy="15.0578" r="13.4899" fill="#FFF5F0"/>
<circle cx="15.7583" cy="15.0578" r="13.3349" stroke="url(#paint0_linear_1001_19788)" stroke-width="0.310064"/>
<circle cx="15.7585" cy="15.5229" r="9.25067" fill="#FFC4A3" stroke="url(#paint1_linear_1001_19788)" stroke-width="1.24026"/>
<path d="M7.35024 11.7858C5.31901 17.1052 9.51889 21.9791 12.1668 24.0013C12.361 24.1496 12.6339 24.1134 12.7926 23.9276C12.9537 23.7391 12.9429 23.46 12.7713 23.2809C10.6336 21.0478 7.20344 16.2294 8.50622 12.4885C9.78979 8.80276 15.6902 9.7522 18.9991 10.8399C19.2794 10.932 19.5661 10.7024 19.5283 10.4098C19.5125 10.2872 19.4421 10.1802 19.3337 10.1208C16.0978 8.34867 9.4353 6.32544 7.35024 11.7858Z" fill="url(#paint2_linear_1001_19788)" stroke="#B94515" stroke-width="0.059461"/>
<path d="M17.4555 13.9709C14.0694 9.66882 8.1744 12.018 5.37896 13.8908C5.20718 14.0059 5.13716 14.2216 5.20104 14.4182C5.29011 14.6925 5.60072 14.8242 5.864 14.7067C8.65749 13.4597 13.9801 12.0242 16.3671 14.859C18.78 17.7245 15.2202 23.4574 12.8453 26.3456C12.6786 26.5484 12.7666 26.8564 13.0162 26.9376C13.1385 26.9774 13.2709 26.9523 13.3671 26.8669C16.2574 24.3001 20.8998 18.3469 17.4555 13.9709Z" fill="url(#paint3_linear_1001_19788)" stroke="#B94515" stroke-width="0.0594611"/>
<path d="M16.385 14.863C12.999 10.5609 7.10391 12.91 4.30847 14.7829C4.13668 14.898 4.06666 15.1137 4.13054 15.3103C4.21961 15.5845 4.53023 15.7163 4.79351 15.5988C7.587 14.3518 12.9096 12.9163 15.2966 15.751C17.7095 18.6166 14.1497 24.3494 11.7748 27.2377C11.6081 27.4405 11.6961 27.7484 11.9457 27.8297C12.068 27.8695 12.2004 27.8444 12.2966 27.759C15.1869 25.1922 19.8293 19.239 16.385 14.863Z" fill="url(#paint4_linear_1001_19788)" stroke="#B94515" stroke-width="0.0594611"/>
<path d="M16.3851 16.2902C12.9991 11.9882 7.10403 14.3373 4.30859 16.2102C4.13681 16.3253 4.06679 16.5409 4.13066 16.7376C4.21974 17.0118 4.53035 17.1436 4.79363 17.0261C7.58712 15.779 12.9097 14.3435 15.2967 17.1783C17.7096 20.0439 14.1498 25.7767 11.775 28.6649C11.6082 28.8677 11.6962 29.1757 11.9458 29.2569C12.0681 29.2968 12.2005 29.2716 12.2967 29.1862C15.187 26.6194 19.8294 20.6662 16.3851 16.2902Z" fill="url(#paint5_linear_1001_19788)" stroke="#B94515" stroke-width="0.0594611"/>
<path d="M19.5592 10.9887C16.1731 6.68665 10.2781 9.03578 7.48262 10.9087C7.31083 11.0237 7.24081 11.2394 7.30469 11.4361C7.39376 11.7103 7.70438 11.8421 7.96765 11.7245C10.7611 10.4775 16.0838 9.04203 18.4707 11.8768C20.8836 14.7424 17.3238 20.4752 14.949 23.3634C14.7823 23.5662 14.8703 23.8742 15.1199 23.9554C15.2421 23.9952 15.3746 23.9701 15.4707 23.8847C18.361 21.3179 23.0034 15.3647 19.5592 10.9887Z" fill="url(#paint6_linear_1001_19788)" stroke="#B94515" stroke-width="0.0594611"/>
<path d="M17.836 12.1179C14.4499 7.8158 8.55485 10.1649 5.75941 12.0378C5.58762 12.1529 5.5176 12.3686 5.58148 12.5652C5.67055 12.8394 5.98117 12.9712 6.24445 12.8537C9.03794 11.6066 14.3606 10.1712 16.7475 13.0059C19.1604 15.8715 15.6006 21.6043 13.2258 24.4926C13.0591 24.6953 13.147 25.0033 13.3967 25.0846C13.5189 25.1244 13.6514 25.0993 13.7475 25.0139C16.6378 22.447 21.2802 16.4939 17.836 12.1179Z" fill="url(#paint7_linear_1001_19788)" stroke="#B94515" stroke-width="0.0594611"/>
<path d="M19.9393 9.13568C16.5533 4.83362 10.6582 7.18275 7.86278 9.05563C7.691 9.17072 7.62098 9.38637 7.68486 9.58303C7.77393 9.85725 8.08454 9.98904 8.34782 9.87151C11.1413 8.62446 16.4639 7.189 18.8509 10.0237C21.2638 12.8893 17.704 18.6222 15.3292 21.5104C15.1624 21.7132 15.2504 22.0211 15.5 22.1024C15.6223 22.1422 15.7547 22.1171 15.8509 22.0317C18.7412 19.4649 23.3836 13.5117 19.9393 9.13568Z" fill="url(#paint8_linear_1001_19788)" stroke="#B94515" stroke-width="0.0594611"/>
<path d="M17.8358 10.5192C14.4498 6.21716 8.55473 8.5663 5.75929 10.4392C5.58751 10.5543 5.51749 10.7699 5.58137 10.9666C5.67044 11.2408 5.98105 11.3726 6.24433 11.2551C9.03782 10.008 14.3604 8.57255 16.7474 11.4073C19.1603 14.2729 15.6005 20.0057 13.2257 22.8939C13.0589 23.0967 13.1469 23.4047 13.3965 23.486C13.5188 23.5258 13.6512 23.5006 13.7474 23.4152C16.6377 20.8484 21.2801 14.8952 17.8358 10.5192Z" fill="url(#paint9_linear_1001_19788)" stroke="#B94515" stroke-width="0.0594611"/>
<path d="M19.9395 7.53704C16.5534 3.23499 10.6584 5.58412 7.86295 7.45699C7.69117 7.57208 7.62115 7.78774 7.68503 7.9844C7.7741 8.25862 8.08471 8.39041 8.34799 8.27288C11.1415 7.02583 16.4641 5.59037 18.8511 8.42511C21.264 11.2907 17.7042 17.0235 15.3293 19.9118C15.1626 20.1145 15.2506 20.4225 15.5002 20.5038C15.6225 20.5436 15.7549 20.5185 15.8511 20.4331C18.7414 17.8662 23.3837 11.913 19.9395 7.53704Z" fill="url(#paint10_linear_1001_19788)" stroke="#B94515" stroke-width="0.0594611"/>
<path d="M6.14675 15.3936C8.50761 20.5751 14.9269 21.0074 18.226 20.5422C18.4679 20.5081 18.6338 20.2884 18.613 20.045C18.5919 19.7979 18.3856 19.6096 18.1376 19.6059C15.0466 19.5598 9.20736 18.6185 7.45878 15.064C5.73601 11.562 10.5553 8.0278 13.6533 6.43572C13.9157 6.30085 13.9536 5.93551 13.7187 5.75695C13.6203 5.68218 13.4946 5.6571 13.3763 5.69258C9.84232 6.75198 3.72332 10.0747 6.14675 15.3936Z" fill="url(#paint11_linear_1001_19788)" stroke="#B94515" stroke-width="0.0594611"/>
<path d="M8.364 13.8499C7.50943 19.2576 13.2391 21.9854 16.5128 22.7632C16.714 22.811 16.9198 22.7158 17.0206 22.5353C17.1612 22.2836 17.0468 21.9661 16.7817 21.8529C13.9683 20.6512 9.29797 17.7223 9.75518 14.0448C10.2174 10.3273 16.8421 9.04243 20.5748 8.82158C20.8368 8.80608 21.003 8.53222 20.8929 8.29389C20.839 8.17713 20.7306 8.09707 20.6026 8.08457C16.7554 7.70886 9.23325 8.34931 8.364 13.8499Z" fill="url(#paint12_linear_1001_19788)" stroke="#B94515" stroke-width="0.059461"/>
<path d="M14.5628 19.3937C20.0367 19.4918 21.9456 13.4399 22.2629 10.09C22.2824 9.88418 22.1597 9.69355 21.9669 9.61864C21.6982 9.5142 21.3996 9.67144 21.3242 9.94971C20.5233 12.9022 18.2688 17.9329 14.5633 17.9889C10.8176 18.0455 8.62856 11.6623 7.89339 7.99604C7.84178 7.73867 7.54757 7.61203 7.32675 7.75397C7.21857 7.82351 7.15429 7.94196 7.15962 8.07046C7.31981 11.9327 8.99485 19.2938 14.5628 19.3937Z" fill="url(#paint13_linear_1001_19788)" stroke="#B94515" stroke-width="0.059461"/>
<path d="M11.9787 17.4046C16.1768 20.9187 21.463 17.4078 23.8137 15.0002C23.9582 14.8523 23.9824 14.6268 23.8794 14.4475C23.7359 14.1975 23.4048 14.1323 23.1713 14.3015C20.6939 16.0962 15.78 18.5952 12.8613 16.3118C9.9108 14.0035 12.216 7.66124 13.9463 4.34646C14.0678 4.11376 13.9184 3.83044 13.6574 3.80223C13.5295 3.78841 13.4051 3.84021 13.3286 3.94356C11.0277 7.04977 7.70836 13.8302 11.9787 17.4046Z" fill="url(#paint14_linear_1001_19788)" stroke="#B94515" stroke-width="0.0594611"/>
<path d="M11.4623 14.7888C13.4466 19.8913 19.7704 19.3635 22.9906 18.3873C23.1884 18.3273 23.3183 18.1414 23.3146 17.9347C23.3093 17.6464 23.0507 17.4298 22.7645 17.4654C19.7288 17.8436 14.2189 17.6644 12.7625 14.2568C11.2901 10.8121 16.3671 6.3666 19.481 4.29649C19.6996 4.15116 19.7053 3.8309 19.4902 3.68038C19.3848 3.60664 19.2509 3.59205 19.134 3.64569C15.6207 5.25804 9.44399 9.59856 11.4623 14.7888Z" fill="url(#paint15_linear_1001_19788)" stroke="#B94515" stroke-width="0.0594611"/>
<path opacity="0.6" d="M20.74 7.35447C18.0994 5.63282 11.8286 11.7696 8.74766 15.3598C8.55769 15.5811 8.45259 15.8779 8.62391 16.114C10.1756 18.2522 21.953 23.1289 23.1689 23.0621C24.4709 22.9905 26.7215 17.4459 26.9145 15.7039C27.0688 14.3103 26.2499 13.6816 25.8211 13.5415C25.5638 10.1177 24.0202 11.0187 23.4414 10.6583C22.8625 10.2979 24.1488 9.577 20.74 7.35447Z" fill="#4F1D08"/>
<path d="M20.5849 6.57932C17.9443 4.85767 11.6736 10.9944 8.59261 14.5846C8.40265 14.806 8.29755 15.1028 8.46887 15.3389C10.0205 17.477 21.7979 22.3537 23.0139 22.2869C24.3158 22.2154 26.5665 16.6708 26.7594 14.9287C26.9138 13.5351 26.0948 12.9065 25.666 12.7664C25.4088 9.34252 23.8652 10.2435 23.2863 9.88313C22.7075 9.52272 23.9938 8.80185 20.5849 6.57932Z" fill="url(#paint16_linear_1001_19788)"/>
<path d="M22.6015 20.4181C22.1002 20.9723 20.5125 21.2538 19.7813 21.3252C20.3355 21.5044 21.6443 21.9583 22.4433 22.2051C23.442 22.5137 23.9691 21.5135 24.2452 21.1075C24.466 20.7828 25.1145 19.6404 25.4003 19.0542C25.8418 18.1486 26.4993 15.9621 26.5842 15.7257C26.6691 15.4893 26.7243 15.061 26.7413 14.8765C25.5703 16.4928 23.1029 19.864 22.6015 20.4181Z" fill="#87301C"/>
<path d="M11.3261 14.2893L10.0271 16.6213L8.87365 15.7633L9.02544 15.4475L11.3261 14.2893Z" fill="#87301C"/>
<path d="M18.4086 18.5465L17.5072 20.316H17.4495L15.8752 19.6325L16.1217 18.9305C16.4956 17.8221 18.7814 16.8216 19.8775 16.46L19.36 17.0776L18.4086 18.5465Z" fill="#87301C"/>
<path d="M14.2897 16.6732L13.3882 18.4427H13.3306L11.825 17.6547L12.0027 17.0572C12.3766 15.9488 14.6624 14.9483 15.7586 14.5867L15.2411 15.2043L14.2897 16.6732Z" fill="#87301C"/>
<path d="M14.1647 11.681C12.6563 11.8486 10.7709 15.019 10.0167 16.5833L10.6415 16.9799C11.1515 16.2159 12.2946 14.487 12.7873 13.6841C13.2799 12.8813 14.1085 12.2912 14.4612 12.0965C14.4946 12.1049 14.7145 12.1166 15.3265 12.0965C16.0914 12.0715 17.9348 8.57274 18.7249 8.79847C19.3569 8.97904 21.3458 8.26342 22.2612 7.88303L21.9101 7.56958C21.2557 7.79479 19.6369 8.25359 18.3967 8.28711C16.8464 8.32901 16.0503 11.4715 14.1647 11.681Z" fill="#FFC4A3"/>
<path d="M17.0834 13.6905C15.575 13.8581 14.0865 16.8301 13.3323 18.3944L13.9571 18.7911C14.4671 18.027 15.2133 16.4965 15.706 15.6937C16.1986 14.8908 17.0272 14.3007 17.3799 14.1061C17.4134 14.1144 17.6332 14.1261 18.2452 14.1061C19.0101 14.081 20.8536 10.5823 21.6436 10.808C22.2756 10.9886 23.3689 10.4597 24.2844 10.0794L23.2459 9.90869C22.5915 10.1339 22.5556 10.2631 21.3154 10.2966C19.7651 10.3385 18.969 13.481 17.0834 13.6905Z" fill="#FFC4A3"/>
<path d="M17.484 20.3434C18.2381 18.7791 19.7819 15.7656 21.2904 15.598C23.1759 15.3885 23.972 12.246 25.5223 12.2041C26.2973 12.1832 25.8669 12.3364 25.5945 12.3993L25.853 12.8337C25.9271 12.8571 25.9014 12.8536 25.8602 12.8458L25.8696 12.8616C25.6952 12.8111 25.7963 12.8337 25.8602 12.8458L25.853 12.8337C25.8133 12.8212 25.7451 12.801 25.6355 12.7697C24.8455 12.5439 23.2171 15.9884 22.4521 16.0135C21.8402 16.0336 21.6203 16.0219 21.5869 16.0135C21.2342 16.2082 20.4056 16.7982 19.9129 17.6011C19.4202 18.404 18.674 19.9344 18.1641 20.6985L17.484 20.3434Z" fill="#FFC4A3"/>
<circle cx="17.9213" cy="10.8646" r="0.162943" fill="#87301C"/>
<circle cx="19.3686" cy="10.2044" r="0.162943" fill="#87301C"/>
<circle cx="21.56" cy="13.4444" r="0.162943" fill="#87301C"/>
<circle cx="22.7294" cy="12.2022" r="0.162943" fill="#87301C"/>
<circle cx="20.3663" cy="9.30357" r="0.162943" fill="#87301C"/>
<circle cx="15.7584" cy="9.46641" r="0.162943" fill="#87301C"/>
<circle cx="18.8081" cy="7.40684" r="0.162943" fill="#87301C"/>
<circle cx="15.7584" cy="13.2814" r="0.162943" fill="#87301C"/>
<circle cx="19.7813" cy="14.1263" r="0.162943" fill="#87301C"/>
<circle cx="21.8858" cy="17.1432" r="0.162943" fill="#87301C"/>
<circle cx="18.3836" cy="15.7992" r="0.162943" fill="#87301C"/>
<circle cx="19.2832" cy="15.3876" r="0.077516" fill="#87301C"/>
<circle cx="20.3663" cy="14.5868" r="0.077516" fill="#87301C"/>
<circle cx="20.5292" cy="13.0409" r="0.077516" fill="#87301C"/>
<circle cx="18.0841" cy="12.1976" r="0.077516" fill="#87301C"/>
<circle cx="16.9635" cy="12.1976" r="0.077516" fill="#87301C"/>
<circle cx="19.0019" cy="9.54407" r="0.077516" fill="#87301C"/>
<circle cx="23.0551" cy="17.1429" r="0.077516" fill="#87301C"/>
<circle cx="22.6439" cy="18.4655" r="0.077516" fill="#87301C"/>
<circle cx="21.0751" cy="18.7911" r="0.077516" fill="#87301C"/>
<circle cx="24.4607" cy="11.8024" r="0.077516" fill="#87301C"/>
<circle cx="21.4824" cy="9.06311" r="0.077516" fill="#87301C"/>
<circle cx="25.0742" cy="16.2023" r="0.077516" fill="#87301C"/>
<circle cx="24.015" cy="15.962" r="0.162943" fill="#87301C"/>
<path opacity="0.4" d="M9.19919 15.8372C8.07423 16.914 7.48958 18.463 7.57384 20.1435C7.6581 21.824 8.40438 23.4983 9.6485 24.7981C10.8926 26.0979 12.5327 26.9167 14.2079 27.0744C15.8831 27.2321 17.4562 26.7158 18.5811 25.639L13.8902 20.7381L9.19919 15.8372Z" fill="#4F1D08"/>
<path d="M10.7952 19.2447L13.7412 22.3224C13.8144 22.399 13.7911 22.5247 13.6953 22.5699L12.957 22.9178C12.8339 22.9759 12.6813 22.8511 12.67 22.7155C12.6549 22.5356 12.5879 22.3502 12.4508 22.207C12.2892 22.0381 11.7732 22.0484 11.3632 22.1392C11.2315 22.1683 11.0928 22.036 11.1259 21.9052C11.2236 21.5196 11.3006 21.0496 11.2273 20.9287C11.1054 20.7277 10.7568 20.6411 10.4187 20.5654C10.3078 20.5406 10.2497 20.4003 10.289 20.2937C10.3831 20.0385 10.4675 19.6466 10.5245 19.3284C10.5473 19.2014 10.706 19.1514 10.7952 19.2447Z" fill="#4F1D08"/>
<ellipse cx="10.5406" cy="21.4183" rx="0.138832" ry="0.402114" transform="rotate(-113.079 10.5406 21.4183)" fill="#4F1D08"/>
<ellipse cx="0.138832" cy="0.402114" rx="0.138832" ry="0.402114" transform="matrix(0.901939 0.431864 0.431864 -0.901939 11.6352 23.1768)" fill="#4F1D08"/>
<ellipse cx="9.83708" cy="19.4993" rx="0.138832" ry="0.402114" transform="rotate(-92.3924 9.83708 19.4993)" fill="#4F1D08"/>
<ellipse cx="0.138832" cy="0.402114" rx="0.138832" ry="0.402114" transform="matrix(0.996346 0.0854131 0.0854131 -0.996346 13.4165 23.8079)" fill="#4F1D08"/>
<mask id="path-58-inside-1_1001_19788" fill="white">
<path d="M9.35428 15.3721C8.22932 16.4489 7.64466 17.9979 7.72892 19.6784C7.81318 21.3589 8.55946 23.0332 9.80358 24.333C11.0477 25.6328 12.6878 26.4516 14.363 26.6093C16.0381 26.767 17.6113 26.2507 18.7362 25.1739L14.0452 20.273L9.35428 15.3721Z"/>
</mask>
<g filter="url(#filter0_i_1001_19788)">
<path d="M9.35428 15.3721C8.22932 16.4489 7.64466 17.9979 7.72892 19.6784C7.81318 21.3589 8.55946 23.0332 9.80358 24.333C11.0477 25.6328 12.6878 26.4516 14.363 26.6093C16.0381 26.767 17.6113 26.2507 18.7362 25.1739L14.0452 20.273L9.35428 15.3721Z" fill="#FF6D2E"/>
</g>
<path d="M9.35428 15.3721C8.22932 16.4489 7.64466 17.9979 7.72892 19.6784C7.81318 21.3589 8.55946 23.0332 9.80358 24.333C11.0477 25.6328 12.6878 26.4516 14.363 26.6093C16.0381 26.767 17.6113 26.2507 18.7362 25.1739L14.0452 20.273L9.35428 15.3721Z" stroke="#FF6D2E" stroke-width="0.620128" mask="url(#path-58-inside-1_1001_19788)"/>
<path d="M12.1905 19.0899L15.1365 22.1677C15.2097 22.2442 15.1864 22.3699 15.0906 22.4151L14.3523 22.763C14.2292 22.8211 14.0767 22.6964 14.0653 22.5607C14.0502 22.3808 13.9832 22.1955 13.8461 22.0522C13.6845 21.8833 13.1686 21.8936 12.7585 21.9844C12.6268 22.0136 12.4881 21.8812 12.5212 21.7505C12.6189 21.3648 12.6959 20.8948 12.6226 20.7739C12.5007 20.5729 12.1521 20.4863 11.814 20.4107C11.7031 20.3858 11.645 20.2455 11.6843 20.1389C11.7784 19.8837 11.8628 19.4918 11.9198 19.1736C11.9426 19.0466 12.1013 18.9966 12.1905 19.0899Z" fill="#FFC4A3"/>
<ellipse cx="11.9359" cy="21.2632" rx="0.138832" ry="0.402114" transform="rotate(-113.079 11.9359 21.2632)" fill="#FFC4A3"/>
<ellipse cx="0.138832" cy="0.402114" rx="0.138832" ry="0.402114" transform="matrix(0.901939 0.431864 0.431864 -0.901939 13.0305 23.022)" fill="#FFC4A3"/>
<ellipse cx="11.2324" cy="19.344" rx="0.138832" ry="0.402114" transform="rotate(-92.3924 11.2324 19.344)" fill="#FFC4A3"/>
<ellipse cx="0.138832" cy="0.402114" rx="0.138832" ry="0.402114" transform="matrix(0.996346 0.0854131 0.0854131 -0.996346 14.8119 23.6528)" fill="#FFC4A3"/>
<path d="M16.9645 17.0014C17.1823 16.1265 18.0963 14.3259 20.0096 14.1226C19.7547 14.9699 18.7888 16.7319 16.9645 17.0014Z" fill="#106C0C"/>
<path d="M17.0143 16.9538C17.6937 16.1996 19.368 14.5141 19.8931 14.2239" stroke="#8FE08B" stroke-width="0.059461"/>
<path d="M16.8455 16.8825C17.0634 16.0076 17.9774 14.207 19.8906 14.0037C19.6357 14.851 18.6698 16.613 16.8455 16.8825Z" fill="#16A010"/>
<path d="M16.8954 16.8347C17.5748 16.0804 19.2491 14.3949 19.7742 14.1047" stroke="#8FE08B" stroke-width="0.059461"/>
<path d="M18.7836 24.3447C19.1876 23.3639 20.5609 21.4253 22.8228 21.5176C22.3804 22.46 20.9532 24.3447 18.7836 24.3447Z" fill="#16A010"/>
<path d="M20.5302 19.8102C20.4602 19.1378 20.6445 17.635 21.9413 17.0029C21.9781 17.6653 21.7473 19.1542 20.5302 19.8102Z" fill="#106C0C"/>
<path d="M20.4208 19.7748C20.3508 19.1024 20.5351 17.5996 21.8319 16.9675C21.8687 17.6299 21.6379 19.1188 20.4208 19.7748Z" fill="#16A010"/>
<defs>
<filter id="filter0_i_1001_19788" x="7.72093" y="15.3721" width="11.0153" height="11.2651" filterUnits="userSpaceOnUse" color-interpolation-filters="sRGB">
<feFlood flood-opacity="0" result="BackgroundImageFix"/>
<feBlend mode="normal" in="SourceGraphic" in2="BackgroundImageFix" result="shape"/>
<feColorMatrix in="SourceAlpha" type="matrix" values="0 0 0 0 0 0 0 0 0 0 0 0 0 0 0 0 0 0 127 0" result="hardAlpha"/>
<feMorphology radius="1.24026" operator="erode" in="SourceAlpha" result="effect1_innerShadow_1001_19788"/>
<feOffset/>
<feComposite in2="hardAlpha" operator="arithmetic" k2="-1" k3="1"/>
<feColorMatrix type="matrix" values="0 0 0 0 1 0 0 0 0 0.576471 0 0 0 0 0.337255 0 0 0 1 0"/>
<feBlend mode="normal" in2="shape" result="effect1_innerShadow_1001_19788"/>
</filter>
<linearGradient id="paint0_linear_1001_19788" x1="20.9728" y1="20.8474" x2="2.59208" y2="8.33054" gradientUnits="userSpaceOnUse">
<stop stop-color="white"/>
<stop offset="1" stop-color="#FFC4A3"/>
</linearGradient>
<linearGradient id="paint1_linear_1001_19788" x1="10.4523" y1="6.38066" x2="20.1829" y2="25.3937" gradientUnits="userSpaceOnUse">
<stop offset="0.189964" stop-color="#B9A59C"/>
<stop offset="0.629376" stop-color="#FFE5D7" stop-opacity="0"/>
</linearGradient>
<linearGradient id="paint2_linear_1001_19788" x1="7.0389" y1="16.9359" x2="20.1527" y2="15.241" gradientUnits="userSpaceOnUse">
<stop stop-color="#FFDBA8"/>
<stop offset="1" stop-color="#DCAA63"/>
</linearGradient>
<linearGradient id="paint3_linear_1001_19788" x1="13.4567" y1="11.5295" x2="8.87904" y2="25.5907" gradientUnits="userSpaceOnUse">
<stop stop-color="#FFDBA8"/>
<stop offset="1" stop-color="#DCAA63"/>
</linearGradient>
<linearGradient id="paint4_linear_1001_19788" x1="12.3862" y1="12.4216" x2="7.80855" y2="26.4828" gradientUnits="userSpaceOnUse">
<stop stop-color="#FFDBA8"/>
<stop offset="1" stop-color="#DCAA63"/>
</linearGradient>
<linearGradient id="paint5_linear_1001_19788" x1="13.1347" y1="26.6993" x2="7.80867" y2="27.9101" gradientUnits="userSpaceOnUse">
<stop stop-color="#FFDBA8"/>
<stop offset="1" stop-color="#DCAA63"/>
</linearGradient>
<linearGradient id="paint6_linear_1001_19788" x1="15.5604" y1="8.54736" x2="10.9827" y2="22.6086" gradientUnits="userSpaceOnUse">
<stop stop-color="#FFDBA8"/>
<stop offset="1" stop-color="#DCAA63"/>
</linearGradient>
<linearGradient id="paint7_linear_1001_19788" x1="13.8372" y1="9.67651" x2="9.25949" y2="23.7377" gradientUnits="userSpaceOnUse">
<stop stop-color="#FFDBA8"/>
<stop offset="1" stop-color="#DCAA63"/>
</linearGradient>
<linearGradient id="paint8_linear_1001_19788" x1="15.9405" y1="6.69434" x2="11.3629" y2="20.7555" gradientUnits="userSpaceOnUse">
<stop stop-color="#FFDBA8"/>
<stop offset="1" stop-color="#DCAA63"/>
</linearGradient>
<linearGradient id="paint9_linear_1001_19788" x1="13.8371" y1="8.07788" x2="9.25938" y2="22.1391" gradientUnits="userSpaceOnUse">
<stop stop-color="#FFDBA8"/>
<stop offset="1" stop-color="#DCAA63"/>
</linearGradient>
<linearGradient id="paint10_linear_1001_19788" x1="15.9407" y1="5.0957" x2="11.363" y2="19.1569" gradientUnits="userSpaceOnUse">
<stop stop-color="#FFDBA8"/>
<stop offset="1" stop-color="#DCAA63"/>
</linearGradient>
<linearGradient id="paint11_linear_1001_19788" x1="9.59482" y1="19.2317" x2="17.5968" y2="8.70497" gradientUnits="userSpaceOnUse">
<stop stop-color="#FFDBA8"/>
<stop offset="1" stop-color="#DCAA63"/>
</linearGradient>
<linearGradient id="paint12_linear_1001_19788" x1="9.2908" y1="18.4425" x2="22.7166" y2="12.2441" gradientUnits="userSpaceOnUse">
<stop stop-color="#FFDBA8"/>
<stop offset="1" stop-color="#DCAA63"/>
</linearGradient>
<linearGradient id="paint13_linear_1001_19788" x1="18.983" y1="17.8404" x2="10.9867" y2="5.40126" gradientUnits="userSpaceOnUse">
<stop stop-color="#FFDBA8"/>
<stop offset="1" stop-color="#DCAA63"/>
</linearGradient>
<linearGradient id="paint14_linear_1001_19788" x1="16.3939" y1="18.9717" x2="17.9831" y2="4.26979" gradientUnits="userSpaceOnUse">
<stop stop-color="#FFDBA8"/>
<stop offset="1" stop-color="#DCAA63"/>
</linearGradient>
<linearGradient id="paint15_linear_1001_19788" x1="14.5753" y1="18.2902" x2="23.0547" y2="6.17524" gradientUnits="userSpaceOnUse">
<stop stop-color="#FFDBA8"/>
<stop offset="1" stop-color="#DCAA63"/>
</linearGradient>
<linearGradient id="paint16_linear_1001_19788" x1="19.1652" y1="15.7692" x2="8.30045" y2="11.3185" gradientUnits="userSpaceOnUse">
<stop stop-color="#DB6040"/>
<stop offset="1" stop-color="#9F3E29"/>
</linearGradient>
</defs>
</svg>
