<svg width="96" height="24" viewBox="0 0 96 24" fill="none" xmlns="http://www.w3.org/2000/svg">
<path d="M19.229 16.8215C18.7247 17.3452 18.1178 17.7593 17.4461 18.0377C16.7744 18.3161 16.0525 18.4528 15.3255 18.4394C14.0079 18.4419 12.7325 17.9747 11.7282 17.1217C10.7239 16.2687 10.0565 15.0858 9.84569 13.7851L9.82629 13.6688V7.36054H11.2641C12.1978 7.42703 12.6632 7.87861 12.6632 8.72081V13.4222C12.6602 13.4756 12.6668 13.529 12.6826 13.5801C12.7981 14.0525 13.0517 14.4798 13.4112 14.8074C13.6574 15.0647 13.9545 15.2679 14.2837 15.4038C14.6128 15.5398 14.9667 15.6056 15.3228 15.597C15.6784 15.6029 16.0315 15.5359 16.3603 15.4001C16.6891 15.2643 16.9865 15.0626 17.2344 14.8074C17.4858 14.5568 17.6851 14.2588 17.8206 13.9307C17.9561 13.6026 18.0252 13.2508 18.0239 12.8958V8.7125C18.0239 7.85922 18.4856 7.4058 19.4091 7.35223H20.8276V12.9291C20.841 13.2129 20.8214 13.4974 20.7694 13.7768C20.6052 14.9336 20.0638 16.0039 19.229 16.8215Z" fill="white"/>
<path d="M79.0061 8.98954C80.0407 10.037 80.6208 11.4499 80.6208 12.9221C80.6208 14.3944 80.0407 15.8073 79.0061 16.8547C78.1496 17.7028 77.0419 18.2514 75.8482 18.4186C74.6545 18.5859 73.4387 18.3629 72.3821 17.7828L72.3322 17.7523L72.2851 17.7218V20.4036C72.2851 21.3271 71.8317 21.7888 70.9249 21.7888H69.5397V13.0371C69.535 12.6945 69.4629 12.3562 69.3274 12.0415C69.192 11.7268 68.9958 11.4419 68.7501 11.2031C68.6635 11.0915 68.5563 10.9974 68.4343 10.9261C68.3023 10.8277 68.1921 10.703 68.1105 10.56C68.029 10.417 67.9779 10.2586 67.9605 10.0949C67.9388 9.93143 67.9561 9.7651 68.011 9.60957C68.0659 9.45403 68.1568 9.31371 68.2764 9.20009C68.642 8.82576 69.06 8.5066 69.5175 8.25261C69.9844 8.49312 70.4055 8.81382 70.7614 9.20009C70.7952 9.23799 70.8344 9.27067 70.8778 9.29705C70.9182 9.24556 70.9617 9.19653 71.008 9.15022C71.0523 9.10312 71.1022 9.04772 71.1548 8.98123C72.1983 7.94653 73.6082 7.36597 75.0777 7.36597C76.5472 7.36597 77.9572 7.94653 79.0006 8.98123L79.0061 8.98954ZM76.9948 14.8462C77.2521 14.5942 77.4549 14.292 77.5908 13.9584C77.7266 13.6249 77.7925 13.267 77.7844 12.9069C77.7903 12.5512 77.7233 12.1981 77.5875 11.8694C77.4517 11.5406 77.25 11.2431 76.9948 10.9953C76.6194 10.6192 76.1414 10.3621 75.6205 10.2564C75.0997 10.1506 74.5593 10.2008 74.0669 10.4008C73.5745 10.6007 73.152 10.9414 72.8523 11.3803C72.5526 11.8192 72.3891 12.3367 72.3821 12.8681V13.026C72.3966 13.7112 72.6802 14.363 73.1717 14.8406C73.6801 15.3448 74.3672 15.6277 75.0832 15.6277C75.7993 15.6277 76.4863 15.3448 76.9948 14.8406V14.8462Z" fill="white"/>
<path d="M91.7389 8.98954C92.7754 10.0359 93.357 11.4492 93.357 12.9221C93.357 14.395 92.7754 15.8083 91.7389 16.8547C90.8824 17.7028 89.7747 18.2514 88.581 18.4186C87.3872 18.5859 86.1715 18.3629 85.1148 17.7828L85.0677 17.7523L85.0179 17.7218V20.4036C85.0179 21.3271 84.5645 21.7888 83.6576 21.7888H82.2724V13.0371C82.2684 12.6944 82.1965 12.3559 82.061 12.0411C81.9255 11.7264 81.729 11.4415 81.4828 11.2031C81.3978 11.09 81.2902 10.9957 81.167 10.9261C81.035 10.8279 80.925 10.7032 80.8439 10.5601C80.7628 10.417 80.7125 10.2586 80.696 10.0949C80.6729 9.93137 80.6895 9.76465 80.7445 9.60888C80.7995 9.45311 80.8912 9.31289 81.0119 9.20009C81.3769 8.82514 81.7951 8.5059 82.253 8.25261C82.7191 8.49315 83.1393 8.81387 83.4942 9.20009C83.5281 9.2389 83.5684 9.27168 83.6133 9.29705C83.652 9.24493 83.6946 9.19585 83.7407 9.15022C83.7929 9.09676 83.8419 9.04034 83.8876 8.98123C84.931 7.94653 86.341 7.36597 87.8104 7.36597C89.2799 7.36597 90.6899 7.94653 91.7333 8.98123L91.7389 8.98954ZM89.7276 14.8462C89.9849 14.5942 90.1877 14.292 90.3235 13.9584C90.4593 13.6249 90.5252 13.267 90.5171 12.9069C90.5231 12.5512 90.456 12.1981 90.3203 11.8694C90.1845 11.5406 89.9827 11.2431 89.7276 10.9953C89.3521 10.6192 88.8741 10.3621 88.3533 10.2564C87.8325 10.1506 87.292 10.2008 86.7996 10.4008C86.3072 10.6007 85.8847 10.9414 85.5851 11.3803C85.2854 11.8192 85.1218 12.3367 85.1148 12.8681V13.026C85.1293 13.7112 85.4129 14.363 85.9044 14.8406C86.4129 15.3448 87.0999 15.6277 87.816 15.6277C88.532 15.6277 89.2191 15.3448 89.7276 14.8406V14.8462Z" fill="white"/>
<path d="M54.9674 12.1312V18.4394H53.5296C52.6061 18.3877 52.1444 17.9342 52.1444 17.0791V12.386C52.1325 12.355 52.126 12.3223 52.125 12.2891C52.1238 12.2613 52.1172 12.234 52.1056 12.2087C52.0517 11.9839 51.9648 11.7683 51.8479 11.5688C51.7219 11.357 51.5702 11.1616 51.3964 10.987C51.1482 10.7315 50.8503 10.5296 50.521 10.3937C50.1918 10.2579 49.8381 10.1911 49.482 10.1974C49.1287 10.1963 48.7787 10.2648 48.4519 10.399C48.1251 10.5332 47.828 10.7304 47.5774 10.9795C47.3268 11.2285 47.1278 11.5244 46.9916 11.8504C46.8554 12.1763 46.7847 12.5259 46.7836 12.8792V17.0791C46.7863 17.2739 46.7524 17.4675 46.6839 17.6498C46.5121 18.1374 46.08 18.3978 45.3818 18.4394H43.944V4.4433H45.3624C45.5373 4.43983 45.711 4.47304 45.8723 4.5408C46.0336 4.60856 46.1789 4.70935 46.2988 4.8367C46.4235 4.96055 46.5219 5.10832 46.5881 5.27114C46.6542 5.43395 46.6868 5.60845 46.6839 5.78418V8.08915C47.5324 7.59498 48.5002 7.34297 49.482 7.36053C50.7959 7.36255 52.0663 7.83142 53.0665 8.68343C54.0667 9.53545 54.7316 10.7152 54.9425 12.012L54.9674 12.1312Z" fill="white"/>
<path d="M24.6232 3V11.8847L28.607 7.48528H31.3303V7.60441L26.6927 12.5274L31.9564 18.0682V18.2206H29.2109L24.6232 13.256V18.2206H22.3597V3H24.6232Z" fill="white" stroke="white" stroke-width="0.554081" stroke-miterlimit="10"/>
<path d="M40.7248 10.1199C39.9459 9.43285 38.931 9.07437 37.8934 9.11983C37.3213 9.07871 36.7483 9.18757 36.2312 9.43566C36.0452 9.51938 35.8875 9.65533 35.7774 9.82698C35.6672 9.99862 35.6093 10.1986 35.6106 10.4025C35.6254 11.1727 36.402 11.6344 37.9405 11.7877C38.4706 11.836 38.9977 11.9128 39.5196 12.0177C40.007 12.1273 40.4815 12.2879 40.9353 12.497C41.4161 12.7046 41.8194 13.0584 42.0878 13.5081C42.3716 14.015 42.5115 14.5898 42.4923 15.1704C42.4954 15.6519 42.3822 16.127 42.1622 16.5553C41.9423 16.9837 41.6221 17.3525 41.229 17.6305C40.4015 18.2548 39.298 18.5669 37.9183 18.5669C35.8295 18.5669 34.1968 17.9066 33.0203 16.5861L34.1949 14.9959C35.1184 16.0264 36.3743 16.5565 37.9627 16.5861C38.5131 16.5992 39.0586 16.4795 39.5529 16.237C39.7565 16.1476 39.9302 16.0016 40.0534 15.8165C40.1766 15.6314 40.2443 15.4149 40.2482 15.1926C40.2643 14.9812 40.2157 14.7699 40.1088 14.5868C40.0019 14.4037 39.8418 14.2574 39.6498 14.1675C39.054 13.9044 38.4161 13.7497 37.766 13.7104C34.8626 13.4352 33.4035 12.3612 33.3887 10.4884C33.3622 9.99161 33.475 9.49729 33.7144 9.06115C33.9537 8.62502 34.3101 8.26441 34.7435 8.01998C35.6822 7.46565 36.7563 7.18273 37.8463 7.20271C39.5289 7.20271 40.9076 7.68199 41.9825 8.64055L40.7248 10.1199Z" fill="white" stroke="white" stroke-width="0.554081" stroke-miterlimit="10"/>
<path d="M58.4082 17.7525C57.5452 17.31 56.8298 16.6255 56.3498 15.7827C55.8778 14.8748 55.6313 13.8666 55.6313 12.8433C55.6313 11.82 55.8778 10.8118 56.3498 9.90391C56.8298 9.06113 57.5452 8.3766 58.4082 7.93416C59.3754 7.44328 60.449 7.19962 61.5333 7.22493C62.619 7.20213 63.6939 7.44563 64.6638 7.93416C65.53 8.37529 66.2483 9.05994 66.7305 9.90391C67.2026 10.8118 67.449 11.82 67.449 12.8433C67.449 13.8666 67.2026 14.8748 66.7305 15.7827C66.2483 16.6267 65.53 17.3113 64.6638 17.7525C63.6918 18.2408 62.6152 18.4843 61.5277 18.4617C60.4455 18.4847 59.3742 18.2411 58.4082 17.7525ZM63.3617 14.8075C63.8114 14.2532 64.0568 13.5612 64.0568 12.8475C64.0568 12.1337 63.8114 11.4417 63.3617 10.8874C63.1243 10.6461 62.8412 10.4544 62.5289 10.3236C62.2167 10.1928 61.8815 10.1254 61.5429 10.1254C61.2044 10.1254 60.8692 10.1928 60.557 10.3236C60.2447 10.4544 59.9616 10.6461 59.7242 10.8874C59.2745 11.4417 59.0291 12.1337 59.0291 12.8475C59.0291 13.5612 59.2745 14.2532 59.7242 14.8075C59.9616 15.0488 60.2447 15.2405 60.557 15.3713C60.8692 15.5022 61.2044 15.5695 61.5429 15.5695C61.8815 15.5695 62.2167 15.5022 62.5289 15.3713C62.8412 15.2405 63.1243 15.0488 63.3617 14.8075Z" fill="white"/>
<path d="M5.33291 4.39343V7.50736H8.46901V9.44664H5.31075V14.5636C5.31075 15.7382 5.82604 16.3256 6.85663 16.3256C7.33616 16.3109 7.80568 16.1847 8.22798 15.9571L8.88179 17.8714C8.20466 18.1799 7.47046 18.3432 6.72642 18.3507C5.55177 18.3803 4.64862 18.0718 4.01697 17.4254C3.38532 16.779 3.06949 15.825 3.06949 14.5636V9.44664H1V7.50736H3.06949V4.63169L5.33291 4.39343Z" fill="white" stroke="white" stroke-width="0.554081" stroke-miterlimit="10"/>
</svg>
