<svg xmlns="http://www.w3.org/2000/svg" width="19" height="20" viewBox="0 0 19 20" fill="none">
<mask id="mask0_5514_59324" style="mask-type:luminance" maskUnits="userSpaceOnUse" x="0" y="0" width="19" height="20">
<path d="M18.9436 0.555664H0.0546875V19.4446H18.9436V0.555664Z" fill="white"/>
</mask>
<g mask="url(#mask0_5514_59324)">
<path d="M3.73471 0.852918C3.3044 0.57486 2.78753 0.490819 2.30273 0.605259L10.8223 9.12492L13.5836 6.36367L3.73471 0.852918Z" fill="white"/>
<path d="M1.24157 1.29785C1.00394 1.61376 0.867188 2.00165 0.867188 2.41197V17.588C0.867188 17.9983 1.00398 18.3861 1.24157 18.702L9.94361 9.99999L1.24157 1.29785Z" fill="white"/>
<path d="M17.1794 8.37974L14.6977 6.99121L11.6895 9.99954L14.6979 13.0081L17.1797 11.6194C17.7744 11.2863 18.1293 10.6808 18.1293 9.99954C18.1293 9.31828 17.7744 8.71289 17.1794 8.37974Z" fill="white"/>
<path d="M10.8218 10.8745L2.30273 19.3936C2.44241 19.4265 2.58456 19.4442 2.7267 19.4442C3.07799 19.4442 3.42806 19.3443 3.73423 19.1464L13.5832 13.6358L10.8218 10.8745Z" fill="white"/>
</g>
</svg>