<svg width="146" height="146" viewBox="0 0 146 146" fill="none" xmlns="http://www.w3.org/2000/svg">
<g filter="url(#filter0_d_11_2)">
<rect x="8" y="4" width="130" height="130" rx="20" fill="#E0633A"/>
<path d="M55.0024 35.2027C55.1044 35.2023 55.2064 35.2016 55.3084 35.2007C55.5883 35.1989 55.8681 35.2008 56.1479 35.2032C56.4525 35.2052 56.7571 35.2038 57.0617 35.2028C57.5954 35.2016 58.129 35.2026 58.6627 35.2049C59.4563 35.2084 60.2498 35.2086 61.0434 35.2081C62.3783 35.2073 63.7132 35.2093 65.0481 35.2127C66.3699 35.2161 67.6916 35.2184 69.0134 35.219C69.0956 35.219 69.1778 35.2191 69.2624 35.2191C69.6798 35.2193 70.0971 35.2195 70.5144 35.2196C73.4706 35.2209 76.4267 35.2247 79.3829 35.2302C82.2548 35.2355 85.1267 35.2396 87.9985 35.242C88.0871 35.2421 88.1756 35.2422 88.2668 35.2423C89.1558 35.243 90.0447 35.2438 90.9337 35.2445C92.7446 35.246 94.5556 35.2476 96.3665 35.2493C96.4498 35.2494 96.533 35.2495 96.6188 35.2496C99.171 35.252 101.723 35.2551 104.275 35.2589C104.384 35.2591 104.384 35.2591 104.495 35.2593C107.43 35.2637 110.365 35.2688 113.3 35.2738C113.3 40.9409 113.3 46.6081 113.3 52.447C87.131 52.447 60.962 52.447 34 52.447C34.2538 52.1424 34.4357 51.9377 34.7351 51.7029C35.0027 51.489 35.2624 51.2711 35.5153 51.0399C35.8256 50.7572 36.1473 50.4922 36.4736 50.2282C36.6641 50.0705 36.8478 49.9077 37.0306 49.7411C37.2701 49.523 37.5139 49.3136 37.7657 49.1098C38.2303 48.7335 38.6797 48.3403 39.1306 47.9478C39.3452 47.7614 39.5611 47.5764 39.777 47.3915C39.8184 47.3561 39.8598 47.3207 39.9024 47.2842C39.9858 47.2129 40.0691 47.1415 40.1525 47.0702C40.3627 46.8903 40.5727 46.7102 40.7827 46.5302C40.8669 46.458 40.9511 46.3859 41.0353 46.3137C41.0769 46.278 41.1186 46.2423 41.1615 46.2055C41.6245 45.8086 42.0875 45.4117 42.5505 45.0149C42.5922 44.9792 42.6339 44.9434 42.6768 44.9066C42.761 44.8345 42.8451 44.7624 42.9292 44.6903C43.1406 44.5091 43.352 44.3279 43.5633 44.1465C44.0086 43.7642 44.455 43.3834 44.9034 43.0048C45.3171 42.6551 45.7282 42.3023 46.1392 41.9494C46.3499 41.7685 46.5608 41.5878 46.7717 41.4071C46.8559 41.3349 46.9401 41.2627 47.0243 41.1906C47.8661 40.469 48.7079 39.7475 49.5497 39.0259C49.6122 38.9723 49.6122 38.9723 49.676 38.9176C49.7601 38.8455 49.8443 38.7734 49.9284 38.7013C50.1398 38.5201 50.3512 38.3389 50.5625 38.1575C51.0075 37.7754 51.4536 37.3946 51.902 37.0164C52.1066 36.8436 52.3106 36.6699 52.5135 36.4951C52.557 36.4576 52.6006 36.4201 52.6454 36.3815C52.7273 36.3108 52.8092 36.2401 52.8909 36.1692C52.968 36.1028 53.0458 36.0371 53.1242 35.9723C53.2237 35.8871 53.3198 35.7978 53.4132 35.706C53.9235 35.2367 54.3253 35.1917 55.0024 35.2027Z" fill="white"/>
<path d="M74.6446 84.9285C74.7252 84.9281 74.8059 84.9277 74.8889 84.9272C75.1584 84.9264 75.4278 84.9292 75.6972 84.9319C75.8907 84.9321 76.0841 84.932 76.2776 84.9317C76.6937 84.9314 77.1098 84.933 77.5259 84.9359C78.1274 84.94 78.729 84.9413 79.3306 84.9419C80.3067 84.943 81.2829 84.9464 82.259 84.9512C83.207 84.9558 84.155 84.9594 85.103 84.9615C85.162 84.9617 85.2211 84.9618 85.282 84.9619C85.7439 84.963 86.2059 84.964 86.6679 84.9649C88.9308 84.9697 91.1937 84.9799 93.4566 84.9893C93.4566 90.6802 93.4566 96.3712 93.4566 102.235C80.3602 102.235 67.2638 102.235 53.7706 102.235C54.3042 101.701 54.864 101.212 55.4504 100.737C55.641 100.58 55.8247 100.417 56.0074 100.25C56.247 100.032 56.4907 99.8228 56.7425 99.619C57.2072 99.2427 57.6565 98.8496 58.1074 98.457C58.3221 98.2706 58.5379 98.0856 58.7539 97.9008C58.7952 97.8653 58.8366 97.8299 58.8792 97.7934C58.9626 97.7221 59.046 97.6507 59.1293 97.5794C59.3395 97.3995 59.5495 97.2195 59.7595 97.0394C59.8437 96.9672 59.9279 96.8951 60.0121 96.8229C60.0538 96.7872 60.0954 96.7515 60.1384 96.7147C60.9381 96.0292 61.7378 95.3437 62.5376 94.6582C62.5793 94.6225 62.6209 94.5868 62.6639 94.5499C62.7479 94.478 62.8319 94.406 62.9159 94.334C63.1293 94.1512 63.3425 93.9682 63.5554 93.7847C63.9402 93.4535 64.3257 93.1244 64.7203 92.8047C65.036 92.5486 65.3376 92.2803 65.638 92.0065C65.8913 91.7814 66.1549 91.5701 66.4182 91.3571C66.6087 91.1994 66.7924 91.0366 66.9752 90.87C67.2855 90.5872 67.6072 90.3222 67.9335 90.0583C68.124 89.9006 68.3077 89.7378 68.4905 89.5712C68.8007 89.2884 69.1225 89.0234 69.4488 88.7594C69.6393 88.6018 69.823 88.4389 70.0058 88.2724C70.2453 88.0543 70.489 87.8448 70.7409 87.641C71.1571 87.3039 71.5608 86.9535 71.9647 86.6018C72.2742 86.3323 72.5858 86.0654 72.8979 85.799C72.936 85.7663 72.9742 85.7337 73.0135 85.7001C73.0502 85.6695 73.0868 85.6389 73.1246 85.6074C73.2553 85.4956 73.2553 85.4956 73.3738 85.3659C73.7755 84.9596 74.0873 84.9175 74.6446 84.9285Z" fill="white"/>
<path d="M74.1632 60.1497C74.232 60.1494 74.3008 60.1491 74.3717 60.1488C74.4853 60.1495 74.4853 60.1495 74.6012 60.1501C74.6815 60.15 74.7619 60.1499 74.8446 60.1497C75.1152 60.1495 75.3857 60.1503 75.6563 60.1511C75.8497 60.1511 76.0431 60.1511 76.2365 60.151C76.6536 60.1509 77.0706 60.1514 77.4877 60.1522C78.0907 60.1534 78.6938 60.1538 79.2968 60.1539C80.2751 60.1543 81.2534 60.1552 82.2318 60.1566C83.1822 60.1579 84.1327 60.1589 85.0831 60.1595C85.1719 60.1596 85.1719 60.1596 85.2624 60.1597C85.7251 60.16 86.1878 60.1602 86.6505 60.1605C88.9192 60.1619 91.1879 60.1648 93.4566 60.1675C93.4566 65.8346 93.4566 71.5018 93.4566 77.3407C80.3602 77.3407 67.2638 77.3407 53.7706 77.3407C54.1765 76.9348 54.1765 76.9348 54.3678 76.7699C54.4103 76.7332 54.4528 76.6965 54.4965 76.6587C54.5412 76.6204 54.5859 76.582 54.6319 76.5425C54.6793 76.5017 54.7266 76.4608 54.7754 76.4188C54.9213 76.293 55.0675 76.1674 55.2137 76.0419C55.2574 76.0043 55.3012 75.9667 55.3462 75.928C55.5968 75.7128 55.8477 75.4979 56.0988 75.2831C56.3089 75.1032 56.5189 74.9231 56.729 74.7431C56.8132 74.6709 56.8973 74.5988 56.9815 74.5266C57.0232 74.4909 57.0649 74.4552 57.1078 74.4184C57.2341 74.3101 57.3603 74.2019 57.4866 74.0937C57.5283 74.0579 57.57 74.0222 57.6129 73.9854C57.6969 73.9134 57.7809 73.8414 57.865 73.7694C58.0783 73.5866 58.2915 73.4036 58.5044 73.2202C58.8892 72.8889 59.2748 72.5598 59.6693 72.2402C59.985 71.984 60.2867 71.7157 60.5871 71.4419C60.8403 71.2168 61.1039 71.0056 61.3673 70.7925C61.5578 70.6348 61.7415 70.472 61.9242 70.3055C62.2344 70.0228 62.556 69.7578 62.8823 69.494C63.0745 69.3348 63.2597 69.1703 63.444 69.0021C63.6698 68.7966 63.8986 68.6002 64.1385 68.4113C64.5944 68.0518 65.0287 67.668 65.4662 67.2866C65.6812 67.0997 65.8974 66.9144 66.1138 66.7292C66.1551 66.6938 66.1965 66.6585 66.239 66.622C66.3223 66.5507 66.4057 66.4794 66.489 66.4082C66.6158 66.2996 66.7425 66.1908 66.8692 66.082C67.3146 65.6997 67.7612 65.3188 68.2096 64.94C68.6234 64.5904 69.0344 64.2376 69.4454 63.8847C69.6561 63.7038 69.867 63.5231 70.0779 63.3424C70.1621 63.2702 70.2463 63.198 70.3305 63.1259C70.8356 62.6929 71.3407 62.26 71.8458 61.8271C71.8875 61.7913 71.9292 61.7555 71.9722 61.7187C72.0557 61.6471 72.1393 61.5755 72.2228 61.5039C72.4435 61.3149 72.6639 61.1256 72.8839 60.9358C72.9298 60.8963 72.9757 60.8568 73.0229 60.816C73.111 60.7402 73.1989 60.6643 73.2868 60.5883C73.7968 60.1494 73.7968 60.1494 74.1632 60.1497Z" fill="white"/>
</g>
<defs>
<filter id="filter0_d_11_2" x="0" y="0" width="146" height="146" filterUnits="userSpaceOnUse" color-interpolation-filters="sRGB">
<feFlood flood-opacity="0" result="BackgroundImageFix"/>
<feColorMatrix in="SourceAlpha" type="matrix" values="0 0 0 0 0 0 0 0 0 0 0 0 0 0 0 0 0 0 127 0" result="hardAlpha"/>
<feOffset dy="4"/>
<feGaussianBlur stdDeviation="4"/>
<feComposite in2="hardAlpha" operator="out"/>
<feColorMatrix type="matrix" values="0 0 0 0 0.405316 0 0 0 0 0.172702 0 0 0 0 0.0964041 0 0 0 0.2 0"/>
<feBlend mode="normal" in2="BackgroundImageFix" result="effect1_dropShadow_11_2"/>
<feBlend mode="normal" in="SourceGraphic" in2="effect1_dropShadow_11_2" result="shape"/>
</filter>
</defs>
</svg>
