<svg width="56" height="56" viewBox="0 0 56 56" fill="none" xmlns="http://www.w3.org/2000/svg">
<g filter="url(#filter0_d_53_6150)">
<rect x="8" y="4" width="40" height="40" rx="12.5" fill="#E0633A"/>
<rect x="8.5" y="4.5" width="39" height="39" rx="12" stroke="white"/>
<path d="M22.672 15.7272C22.6977 15.7271 22.7234 15.727 22.7491 15.7267C22.8197 15.7263 22.8903 15.7268 22.9609 15.7274C23.0377 15.7279 23.1145 15.7275 23.1913 15.7273C23.3259 15.727 23.4605 15.7272 23.5951 15.7278C23.7952 15.7287 23.9954 15.7287 24.1955 15.7286C24.5322 15.7284 24.8689 15.7289 25.2055 15.7298C25.5389 15.7306 25.8723 15.7312 26.2056 15.7314C26.2263 15.7314 26.2471 15.7314 26.2684 15.7314C26.3737 15.7314 26.4789 15.7315 26.5842 15.7315C27.3298 15.7318 28.0753 15.7328 28.8209 15.7342C29.5452 15.7355 30.2695 15.7365 30.9938 15.7372C31.0161 15.7372 31.0385 15.7372 31.0615 15.7372C31.2857 15.7374 31.5099 15.7376 31.7341 15.7378C32.1908 15.7382 32.6475 15.7386 33.1043 15.739C33.1253 15.739 33.1463 15.739 33.1679 15.7391C33.8116 15.7397 34.4552 15.7405 35.0989 15.7414C35.1263 15.7415 35.1263 15.7415 35.1543 15.7415C35.8945 15.7426 36.6348 15.7439 37.375 15.7452C37.375 17.1745 37.375 18.6038 37.375 20.0764C30.775 20.0764 24.175 20.0764 17.375 20.0764C17.439 19.9996 17.4849 19.9479 17.5604 19.8887C17.6279 19.8348 17.6934 19.7798 17.7572 19.7215C17.8354 19.6502 17.9166 19.5833 17.9989 19.5168C18.0469 19.477 18.0932 19.4359 18.1393 19.3939C18.1997 19.3389 18.2612 19.2861 18.3247 19.2347C18.4419 19.1398 18.5552 19.0406 18.669 18.9416C18.7231 18.8946 18.7775 18.848 18.832 18.8014C18.8424 18.7924 18.8529 18.7835 18.8636 18.7743C18.8847 18.7563 18.9057 18.7383 18.9267 18.7203C18.9797 18.6749 19.0327 18.6295 19.0856 18.5841C19.1069 18.5659 19.1281 18.5477 19.1493 18.5295C19.1598 18.5205 19.1704 18.5115 19.1812 18.5022C19.298 18.4021 19.4147 18.302 19.5315 18.2019C19.542 18.1929 19.5525 18.1839 19.5634 18.1746C19.5846 18.1565 19.6058 18.1383 19.627 18.1201C19.6803 18.0744 19.7336 18.0287 19.7869 17.9829C19.8992 17.8865 20.0118 17.7905 20.1249 17.695C20.2293 17.6068 20.3329 17.5178 20.4366 17.4288C20.4897 17.3832 20.5429 17.3376 20.5961 17.292C20.6173 17.2738 20.6386 17.2556 20.6598 17.2374C20.8721 17.0554 21.0844 16.8735 21.2967 16.6915C21.3125 16.678 21.3125 16.678 21.3286 16.6642C21.3498 16.646 21.371 16.6278 21.3922 16.6096C21.4456 16.5639 21.4989 16.5182 21.5522 16.4725C21.6644 16.3761 21.7769 16.2801 21.89 16.1847C21.9416 16.1411 21.993 16.0973 22.0442 16.0532C22.0552 16.0437 22.0662 16.0343 22.0775 16.0245C22.0982 16.0067 22.1188 15.9889 22.1394 15.971C22.1589 15.9542 22.1785 15.9377 22.1983 15.9213C22.2233 15.8998 22.2476 15.8773 22.2711 15.8542C22.3998 15.7358 22.5012 15.7245 22.672 15.7272Z" fill="white"/>
<path d="M27.6259 28.2684C27.6462 28.2683 27.6666 28.2682 27.6875 28.2681C27.7555 28.2679 27.8234 28.2686 27.8914 28.2693C27.9402 28.2693 27.989 28.2693 28.0378 28.2692C28.1427 28.2692 28.2476 28.2696 28.3526 28.2703C28.5043 28.2713 28.656 28.2717 28.8077 28.2718C29.0539 28.2721 29.3001 28.2729 29.5463 28.2741C29.7854 28.2753 30.0245 28.2762 30.2636 28.2768C30.2785 28.2768 30.2934 28.2768 30.3087 28.2769C30.4252 28.2771 30.5417 28.2774 30.6583 28.2776C31.229 28.2788 31.7997 28.2814 32.3704 28.2838C32.3704 29.7191 32.3704 31.1544 32.3704 32.6332C29.0674 32.6332 25.7644 32.6332 22.3613 32.6332C22.4959 32.4986 22.6371 32.3752 22.785 32.2555C22.8331 32.2158 22.8794 32.1747 22.9255 32.1327C22.9859 32.0777 23.0474 32.0249 23.1109 31.9735C23.2281 31.8786 23.3414 31.7794 23.4551 31.6804C23.5093 31.6334 23.5637 31.5867 23.6182 31.5401C23.6286 31.5312 23.639 31.5223 23.6498 31.5131C23.6708 31.4951 23.6918 31.4771 23.7128 31.4591C23.7659 31.4137 23.8188 31.3683 23.8718 31.3229C23.893 31.3047 23.9143 31.2865 23.9355 31.2683C23.946 31.2593 23.9565 31.2503 23.9673 31.241C24.169 31.0681 24.3707 30.8952 24.5724 30.7223C24.5829 30.7133 24.5935 30.7043 24.6043 30.695C24.6255 30.6769 24.6467 30.6587 24.6679 30.6406C24.7217 30.5945 24.7754 30.5483 24.8291 30.502C24.9262 30.4185 25.0234 30.3355 25.1229 30.2549C25.2025 30.1903 25.2786 30.1226 25.3544 30.0535C25.4183 29.9968 25.4847 29.9435 25.5512 29.8898C25.5992 29.85 25.6455 29.8089 25.6916 29.7669C25.7699 29.6956 25.851 29.6288 25.9333 29.5622C25.9814 29.5224 26.0277 29.4814 26.0738 29.4393C26.152 29.368 26.2332 29.3012 26.3155 29.2346C26.3635 29.1949 26.4099 29.1538 26.456 29.1118C26.5164 29.0568 26.5778 29.004 26.6414 28.9525C26.7463 28.8675 26.8482 28.7791 26.95 28.6904C27.0281 28.6225 27.1067 28.5552 27.1854 28.488C27.195 28.4797 27.2046 28.4715 27.2145 28.463C27.2238 28.4553 27.233 28.4476 27.2425 28.4397C27.2755 28.4115 27.2755 28.4115 27.3054 28.3787C27.4067 28.2763 27.4853 28.2657 27.6259 28.2684Z" fill="white"/>
<path d="M27.5045 22.019C27.5218 22.0189 27.5392 22.0189 27.5571 22.0188C27.5857 22.019 27.5857 22.019 27.615 22.0191C27.6352 22.0191 27.6555 22.0191 27.6764 22.019C27.7446 22.019 27.8128 22.0192 27.8811 22.0194C27.9298 22.0194 27.9786 22.0194 28.0274 22.0193C28.1326 22.0193 28.2378 22.0194 28.343 22.0196C28.495 22.0199 28.6471 22.02 28.7992 22.0201C29.046 22.0202 29.2927 22.0204 29.5394 22.0208C29.7792 22.0211 30.0189 22.0213 30.2586 22.0215C30.281 22.0215 30.281 22.0215 30.3038 22.0215C30.4205 22.0216 30.5372 22.0217 30.6539 22.0217C31.2261 22.0221 31.7982 22.0228 32.3704 22.0235C32.3704 23.4528 32.3704 24.8821 32.3704 26.3547C29.0674 26.3547 25.7644 26.3547 22.3613 26.3547C22.4637 26.2523 22.4637 26.2523 22.512 26.2108C22.5227 26.2015 22.5334 26.1922 22.5444 26.1827C22.5557 26.173 22.567 26.1634 22.5786 26.1534C22.5905 26.1431 22.6024 26.1328 22.6148 26.1222C22.6516 26.0905 22.6884 26.0588 22.7253 26.0271C22.7363 26.0177 22.7474 26.0082 22.7587 25.9984C22.8219 25.9441 22.8852 25.8899 22.9485 25.8358C23.0015 25.7904 23.0545 25.745 23.1075 25.6996C23.1287 25.6814 23.1499 25.6632 23.1712 25.645C23.1817 25.636 23.1922 25.627 23.203 25.6177C23.2348 25.5904 23.2667 25.5631 23.2985 25.5358C23.3091 25.5268 23.3196 25.5178 23.3304 25.5085C23.3516 25.4903 23.3728 25.4722 23.394 25.454C23.4478 25.4079 23.5016 25.3617 23.5552 25.3155C23.6523 25.2319 23.7495 25.1489 23.849 25.0683C23.9287 25.0037 24.0047 24.936 24.0805 24.867C24.1444 24.8102 24.2109 24.7569 24.2773 24.7032C24.3253 24.6634 24.3717 24.6224 24.4177 24.5804C24.496 24.5091 24.5771 24.4422 24.6594 24.3757C24.7078 24.3356 24.7546 24.2941 24.801 24.2517C24.858 24.1998 24.9157 24.1503 24.9762 24.1027C25.0912 24.012 25.2007 23.9152 25.3111 23.819C25.3653 23.7719 25.4198 23.7251 25.4744 23.6784C25.4848 23.6695 25.4952 23.6606 25.506 23.6514C25.527 23.6334 25.548 23.6154 25.569 23.5974C25.601 23.5701 25.633 23.5426 25.6649 23.5152C25.7772 23.4188 25.8899 23.3227 26.003 23.2272C26.1073 23.139 26.211 23.05 26.3146 22.961C26.3678 22.9154 26.421 22.8698 26.4742 22.8242C26.4954 22.806 26.5166 22.7878 26.5379 22.7696C26.6652 22.6604 26.7926 22.5512 26.92 22.4421C26.9305 22.433 26.9411 22.424 26.9519 22.4147C26.973 22.3967 26.994 22.3786 27.0151 22.3606C27.0708 22.3129 27.1263 22.2651 27.1818 22.2173C27.1934 22.2073 27.205 22.1973 27.2169 22.1871C27.2391 22.1679 27.2613 22.1488 27.2835 22.1296C27.4121 22.0189 27.4121 22.0189 27.5045 22.019Z" fill="white"/>
</g>
<defs>
<filter id="filter0_d_53_6150" x="0" y="0" width="56" height="56" filterUnits="userSpaceOnUse" color-interpolation-filters="sRGB">
<feFlood flood-opacity="0" result="BackgroundImageFix"/>
<feColorMatrix in="SourceAlpha" type="matrix" values="0 0 0 0 0 0 0 0 0 0 0 0 0 0 0 0 0 0 127 0" result="hardAlpha"/>
<feOffset dy="4"/>
<feGaussianBlur stdDeviation="4"/>
<feComposite in2="hardAlpha" operator="out"/>
<feColorMatrix type="matrix" values="0 0 0 0 0.405316 0 0 0 0 0.172702 0 0 0 0 0.0964041 0 0 0 0.2 0"/>
<feBlend mode="normal" in2="BackgroundImageFix" result="effect1_dropShadow_53_6150"/>
<feBlend mode="normal" in="SourceGraphic" in2="effect1_dropShadow_53_6150" result="shape"/>
</filter>
</defs>
</svg>
